# xmcd
#
# Track frame offsets: 
#        150
#        17614
#        38893
#        55510
#        67737
#        90306
#        103883
#        126587
#        143861
#        159215
#        179025
#        202589
#        242021
#        270501
#        287943
#        307250
#
# Disc length: 4312 seconds
#
# Revision: 0
# Processed by: cddbd v1.5PL3 Copyright (c) Steve Scherf et al.
# Submitted via: ExactAudioCopy v0.95a3
#
DISCID=dc10d610
DTITLE=PRINCE - The Best
DYEAR=1900
DGENRE=Rock
TTITLE0=WHEN DOVES CRY
TTITLE1=LET'S GO CRAZY
TTITLE2=1999
TTITLE3=DELIRIOUS
TTITLE4=LITTLE RED CORVETTE
TTITLE5=I WOULD DIE 4 YOU
TTITLE6=NOTHING COMPARES 2 U (LIVE)
TTITLE7=KISS
TTITLE8=THIEVES IN THE TEMPLE
TTITLE9=DIAMONDS AND PEARLS
TTITLE10=7
TTITLE11=PURPLE RAIN
TTITLE12=PINK CASHMERE
TTITLE13=PEACH
TTITLE14=CREAM
TTITLE15=CONTROVERSY
EXTD=
EXTT0=
EXTT1=
EXTT2=
EXTT3=
EXTT4=
EXTT5=
EXTT6=
EXTT7=
EXTT8=
EXTT9=
EXTT10=
EXTT11=
EXTT12=
EXTT13=
EXTT14=
EXTT15=
PLAYORDER=
